# MagicaVoxel @ Ephtracy

# group
o 

# material
mtllib Player_SpineLow.mtl
usemtl palette

# normals
vn -1 0 0
vn 1 0 0
vn 0 0 1
vn 0 0 -1
vn 0 -1 0
vn 0 1 0

# texcoords
vt 0.0371094 0.5
vt 0.669922 0.5
vt 0.787109 0.5
vt 0.986328 0.5

# verts
v -0.3 0.2 0.2
v -0.3 0.2 -0.2
v -0.3 0.4 0.2
v -0.3 0.4 -0.2
v -0.2 0 0.1
v -0.2 0 -0.1
v -0.2 0.1 0.1
v -0.2 0.1 -0.1
v -0.2 0.2 0.1
v -0.2 0.2 -0.1
v 0.2 0 0.1
v 0.2 0 -0.1
v 0.2 0.1 0.1
v 0.2 0.1 -0.1
v 0.2 0.2 0.1
v 0.2 0.2 -0.1
v 0.3 0.2 0.2
v 0.3 0.2 -0.2
v 0.3 0.4 0.2
v 0.3 0.4 -0.2
v -0.3 0.2 0.2
v -0.3 0.4 0.2
v 0.3 0.2 0.2
v 0.3 0.4 0.2
v -0.2 0 0.1
v -0.2 0.1 0.1
v -0.2 0.2 0.1
v 0.2 0 0.1
v 0.2 0.1 0.1
v 0.2 0.2 0.1
v -0.2 0 -0.1
v -0.2 0.1 -0.1
v -0.2 0.2 -0.1
v -0.1 0.2 -0.1
v 0.1 0.2 -0.1
v 0.2 0 -0.1
v 0.2 0.1 -0.1
v 0.2 0.2 -0.1
v -0.3 0.2 -0.2
v -0.3 0.4 -0.2
v -0.1 0.2 -0.2
v -0.1 0.4 -0.2
v 0.1 0.2 -0.2
v 0.1 0.4 -0.2
v 0.3 0.2 -0.2
v 0.3 0.4 -0.2
v -0.2 0 0.1
v 0.2 0 0.1
v -0.2 0 -0.1
v 0.2 0 -0.1
v -0.3 0.2 0.2
v 0.3 0.2 0.2
v -0.2 0.2 0.1
v 0.2 0.2 0.1
v -0.2 0.2 -0.1
v -0.1 0.2 -0.1
v 0.1 0.2 -0.1
v 0.2 0.2 -0.1
v -0.3 0.2 -0.2
v -0.1 0.2 -0.2
v 0.1 0.2 -0.2
v 0.3 0.2 -0.2
v -0.3 0.4 0.2
v 0.3 0.4 0.2
v -0.1 0.4 -0.1
v 0.1 0.4 -0.1
v -0.3 0.4 -0.2
v -0.1 0.4 -0.2
v 0.1 0.4 -0.2
v 0.3 0.4 -0.2

# faces
f 3/2/1 2/2/1 1/2/1
f 4/2/1 2/2/1 3/2/1
f 7/1/1 6/1/1 5/1/1
f 8/1/1 6/1/1 7/1/1
f 9/3/1 8/3/1 7/3/1
f 10/3/1 8/3/1 9/3/1
f 11/1/2 12/1/2 13/1/2
f 13/1/2 12/1/2 14/1/2
f 13/3/2 14/3/2 15/3/2
f 15/3/2 14/3/2 16/3/2
f 17/2/2 18/2/2 19/2/2
f 19/2/2 18/2/2 20/2/2
f 23/2/3 22/2/3 21/2/3
f 24/2/3 22/2/3 23/2/3
f 28/1/3 26/1/3 25/1/3
f 29/3/3 27/3/3 26/3/3
f 29/1/3 26/1/3 28/1/3
f 30/3/3 27/3/3 29/3/3
f 32/3/4 33/3/4 34/3/4
f 32/3/4 34/3/4 35/3/4
f 31/1/4 32/1/4 36/1/4
f 32/3/4 35/3/4 37/3/4
f 36/1/4 32/1/4 37/1/4
f 37/3/4 35/3/4 38/3/4
f 39/2/4 40/2/4 41/2/4
f 41/2/4 40/2/4 42/2/4
f 41/4/4 42/4/4 43/4/4
f 43/4/4 42/4/4 44/4/4
f 43/2/4 44/2/4 45/2/4
f 45/2/4 44/2/4 46/2/4
f 49/1/5 48/1/5 47/1/5
f 50/1/5 48/1/5 49/1/5
f 53/2/5 52/2/5 51/2/5
f 54/2/5 52/2/5 53/2/5
f 55/2/5 53/2/5 51/2/5
f 58/2/5 52/2/5 54/2/5
f 59/2/5 55/2/5 51/2/5
f 59/2/5 56/2/5 55/2/5
f 60/4/5 57/4/5 56/4/5
f 60/2/5 56/2/5 59/2/5
f 61/2/5 58/2/5 57/2/5
f 61/4/5 57/4/5 60/4/5
f 62/2/5 52/2/5 58/2/5
f 62/2/5 58/2/5 61/2/5
f 63/2/6 64/2/6 65/2/6
f 65/2/6 64/2/6 66/2/6
f 63/2/6 65/2/6 67/2/6
f 65/4/6 66/4/6 68/4/6
f 67/2/6 65/2/6 68/2/6
f 66/2/6 64/2/6 69/2/6
f 68/4/6 66/4/6 69/4/6
f 69/2/6 64/2/6 70/2/6
