# MagicaVoxel @ Ephtracy

# group
o 

# material
mtllib Player_Pelvis.mtl
usemtl palette

# normals
vn -1 0 0
vn 1 0 0
vn 0 0 1
vn 0 0 -1
vn 0 -1 0
vn 0 1 0

# texcoords
vt 0.623047 0.5
vt 0.814453 0.5
vt 0.990234 0.5

# verts
v -0.4 0.1 0.1
v -0.4 0.1 7.45058e-009
v -0.4 0.1 -0.1
v -0.4 0.3 0.1
v -0.4 0.3 7.45058e-009
v -0.4 0.3 -0.1
v -0.4 0.4 0.1
v -0.4 0.4 -0.1
v -0.3 0 0.2
v -0.3 0 0.1
v -0.3 0 7.45058e-009
v -0.3 0 -0.1
v -0.3 0.1 0.1
v -0.3 0.1 7.45058e-009
v -0.3 0.1 -0.1
v -0.3 0.1 -0.2
v -0.3 0.3 0.2
v -0.3 0.3 0.1
v -0.3 0.3 -0.1
v -0.3 0.3 -0.2
v -0.3 0.4 0.2
v -0.3 0.4 0.1
v -0.3 0.4 -0.1
v -0.3 0.4 -0.2
v -0.2 0 -0.1
v -0.2 0 -0.2
v -0.2 0.1 -0.1
v -0.2 0.1 -0.2
v 0.2 0 -0.1
v 0.2 0 -0.2
v 0.2 0.1 -0.1
v 0.2 0.1 -0.2
v 0.3 0 0.2
v 0.3 0 0.1
v 0.3 0 7.45058e-009
v 0.3 0 -0.1
v 0.3 0.1 0.1
v 0.3 0.1 7.45058e-009
v 0.3 0.1 -0.1
v 0.3 0.1 -0.2
v 0.3 0.3 0.2
v 0.3 0.3 0.1
v 0.3 0.3 -0.1
v 0.3 0.3 -0.2
v 0.3 0.4 0.2
v 0.3 0.4 0.1
v 0.3 0.4 -0.1
v 0.3 0.4 -0.2
v 0.4 0.1 0.1
v 0.4 0.1 7.45058e-009
v 0.4 0.1 -0.1
v 0.4 0.3 0.1
v 0.4 0.3 7.45058e-009
v 0.4 0.3 -0.1
v 0.4 0.4 0.1
v 0.4 0.4 -0.1
v -0.3 0 0.2
v -0.3 0.3 0.2
v -0.3 0.4 0.2
v 0.3 0 0.2
v 0.3 0.3 0.2
v 0.3 0.4 0.2
v -0.4 0.1 0.1
v -0.4 0.3 0.1
v -0.4 0.4 0.1
v -0.3 0.1 0.1
v -0.3 0.3 0.1
v -0.3 0.4 0.1
v 0.3 0.1 0.1
v 0.3 0.3 0.1
v 0.3 0.4 0.1
v 0.4 0.1 0.1
v 0.4 0.3 0.1
v 0.4 0.4 0.1
v -0.4 0.1 -0.1
v -0.4 0.3 -0.1
v -0.4 0.4 -0.1
v -0.3 0 -0.1
v -0.3 0.1 -0.1
v -0.3 0.3 -0.1
v -0.3 0.4 -0.1
v -0.2 0 -0.1
v -0.2 0.1 -0.1
v 0.2 0 -0.1
v 0.2 0.1 -0.1
v 0.3 0 -0.1
v 0.3 0.1 -0.1
v 0.3 0.3 -0.1
v 0.3 0.4 -0.1
v 0.4 0.1 -0.1
v 0.4 0.3 -0.1
v 0.4 0.4 -0.1
v -0.3 0.1 -0.2
v -0.3 0.3 -0.2
v -0.3 0.4 -0.2
v -0.2 0 -0.2
v -0.2 0.1 -0.2
v 0.2 0 -0.2
v 0.2 0.1 -0.2
v 0.3 0.1 -0.2
v 0.3 0.3 -0.2
v 0.3 0.4 -0.2
v -0.3 0 0.2
v 0.3 0 0.2
v -0.3 0 0.1
v -0.2 0 0.1
v 0.2 0 0.1
v 0.3 0 0.1
v -0.3 0 7.45058e-009
v -0.2 0 7.45058e-009
v 0.2 0 7.45058e-009
v 0.3 0 7.45058e-009
v -0.3 0 -0.1
v -0.2 0 -0.1
v 0.2 0 -0.1
v 0.3 0 -0.1
v -0.2 0 -0.2
v 0.2 0 -0.2
v -0.4 0.1 0.1
v -0.3 0.1 0.1
v 0.3 0.1 0.1
v 0.4 0.1 0.1
v -0.4 0.1 7.45058e-009
v -0.3 0.1 7.45058e-009
v 0.3 0.1 7.45058e-009
v 0.4 0.1 7.45058e-009
v -0.4 0.1 -0.1
v -0.3 0.1 -0.1
v -0.2 0.1 -0.1
v 0.2 0.1 -0.1
v 0.3 0.1 -0.1
v 0.4 0.1 -0.1
v -0.3 0.1 -0.2
v -0.2 0.1 -0.2
v 0.2 0.1 -0.2
v 0.3 0.1 -0.2
v -0.3 0.4 0.2
v 0.3 0.4 0.2
v -0.4 0.4 0.1
v -0.3 0.4 0.1
v 0.3 0.4 0.1
v 0.4 0.4 0.1
v -0.4 0.4 -0.1
v -0.3 0.4 -0.1
v 0.3 0.4 -0.1
v 0.4 0.4 -0.1
v -0.3 0.4 -0.2
v 0.3 0.4 -0.2

# faces
f 4/2/1 2/2/1 1/2/1
f 5/3/1 3/3/1 2/3/1
f 5/2/1 2/2/1 4/2/1
f 6/3/1 3/3/1 5/3/1
f 7/1/1 5/1/1 4/1/1
f 7/1/1 6/1/1 5/1/1
f 8/1/1 6/1/1 7/1/1
f 13/3/1 10/3/1 9/3/1
f 13/2/1 11/2/1 10/2/1
f 14/3/1 12/3/1 11/3/1
f 14/2/1 11/2/1 13/2/1
f 15/3/1 12/3/1 14/3/1
f 17/3/1 13/3/1 9/3/1
f 18/3/1 13/3/1 17/3/1
f 19/3/1 16/3/1 15/3/1
f 20/3/1 16/3/1 19/3/1
f 21/1/1 18/1/1 17/1/1
f 22/1/1 18/1/1 21/1/1
f 23/1/1 20/1/1 19/1/1
f 24/1/1 20/1/1 23/1/1
f 27/3/1 26/3/1 25/3/1
f 28/3/1 26/3/1 27/3/1
f 29/3/2 30/3/2 31/3/2
f 31/3/2 30/3/2 32/3/2
f 33/3/2 34/3/2 37/3/2
f 34/2/2 35/2/2 37/2/2
f 35/3/2 36/3/2 38/3/2
f 37/2/2 35/2/2 38/2/2
f 38/3/2 36/3/2 39/3/2
f 33/3/2 37/3/2 41/3/2
f 41/3/2 37/3/2 42/3/2
f 39/3/2 40/3/2 43/3/2
f 43/3/2 40/3/2 44/3/2
f 41/1/2 42/1/2 45/1/2
f 45/1/2 42/1/2 46/1/2
f 43/1/2 44/1/2 47/1/2
f 47/1/2 44/1/2 48/1/2
f 49/2/2 50/2/2 52/2/2
f 50/3/2 51/3/2 53/3/2
f 52/2/2 50/2/2 53/2/2
f 53/3/2 51/3/2 54/3/2
f 52/1/2 53/1/2 55/1/2
f 53/1/2 54/1/2 55/1/2
f 55/1/2 54/1/2 56/1/2
f 60/3/3 58/3/3 57/3/3
f 61/1/3 59/1/3 58/1/3
f 61/3/3 58/3/3 60/3/3
f 62/1/3 59/1/3 61/1/3
f 66/2/3 64/2/3 63/2/3
f 67/1/3 65/1/3 64/1/3
f 67/2/3 64/2/3 66/2/3
f 68/1/3 65/1/3 67/1/3
f 72/2/3 70/2/3 69/2/3
f 73/1/3 71/1/3 70/1/3
f 73/2/3 70/2/3 72/2/3
f 74/1/3 71/1/3 73/1/3
f 75/3/4 76/3/4 79/3/4
f 76/1/4 77/1/4 80/1/4
f 79/3/4 76/3/4 80/3/4
f 80/1/4 77/1/4 81/1/4
f 78/3/4 79/3/4 82/3/4
f 82/3/4 79/3/4 83/3/4
f 84/3/4 85/3/4 86/3/4
f 86/3/4 85/3/4 87/3/4
f 87/3/4 88/3/4 90/3/4
f 88/1/4 89/1/4 91/1/4
f 90/3/4 88/3/4 91/3/4
f 91/1/4 89/1/4 92/1/4
f 93/3/4 94/3/4 97/3/4
f 96/3/4 97/3/4 98/3/4
f 97/3/4 94/3/4 99/3/4
f 98/3/4 97/3/4 99/3/4
f 99/3/4 94/3/4 100/3/4
f 94/1/4 95/1/4 101/1/4
f 100/3/4 94/3/4 101/3/4
f 101/1/4 95/1/4 102/1/4
f 105/3/5 104/3/5 103/3/5
f 106/3/5 104/3/5 105/3/5
f 107/3/5 104/3/5 106/3/5
f 108/3/5 104/3/5 107/3/5
f 109/2/5 106/2/5 105/2/5
f 110/3/5 107/3/5 106/3/5
f 110/2/5 106/2/5 109/2/5
f 111/2/5 108/2/5 107/2/5
f 111/3/5 107/3/5 110/3/5
f 112/2/5 108/2/5 111/2/5
f 113/3/5 110/3/5 109/3/5
f 113/3/5 111/3/5 110/3/5
f 113/3/5 112/3/5 111/3/5
f 114/3/5 112/3/5 113/3/5
f 115/3/5 112/3/5 114/3/5
f 116/3/5 112/3/5 115/3/5
f 117/3/5 115/3/5 114/3/5
f 118/3/5 115/3/5 117/3/5
f 123/2/5 120/2/5 119/2/5
f 124/2/5 120/2/5 123/2/5
f 125/2/5 122/2/5 121/2/5
f 126/2/5 122/2/5 125/2/5
f 127/3/5 124/3/5 123/3/5
f 128/3/5 124/3/5 127/3/5
f 131/3/5 126/3/5 125/3/5
f 132/3/5 126/3/5 131/3/5
f 133/3/5 129/3/5 128/3/5
f 134/3/5 129/3/5 133/3/5
f 135/3/5 131/3/5 130/3/5
f 136/3/5 131/3/5 135/3/5
f 137/1/6 138/1/6 140/1/6
f 140/1/6 138/1/6 141/1/6
f 139/1/6 140/1/6 143/1/6
f 141/1/6 142/1/6 143/1/6
f 140/1/6 141/1/6 143/1/6
f 143/1/6 142/1/6 144/1/6
f 144/1/6 142/1/6 145/1/6
f 145/1/6 142/1/6 146/1/6
f 144/1/6 145/1/6 147/1/6
f 147/1/6 145/1/6 148/1/6
