# MagicaVoxel @ Ephtracy

# group
o 

# material
mtllib Player_UpArm.mtl
usemtl palette

# normals
vn -1 0 0
vn 1 0 0
vn 0 0 1
vn 0 0 -1
vn 0 -1 0
vn 0 1 0

# texcoords
vt 0.787109 0.5
vt 0.990234 0.5

# verts
v -1.41561e-007 -0.0999998 0.1
v -1.41561e-007 -0.0999998 -0.2
v -1.41561e-007 0.2 0.1
v -1.41561e-007 0.2 -0.2
v 0.3 -0.0999998 0.1
v 0.3 -0.0999998 -0.2
v 0.3 1.93715e-007 1.49012e-008
v 0.3 1.93715e-007 -0.1
v 0.3 0.1 1.49012e-008
v 0.3 0.1 -0.1
v 0.3 0.2 0.1
v 0.3 0.2 -0.2
v 0.6 1.93715e-007 1.49012e-008
v 0.6 1.93715e-007 -0.1
v 0.6 0.1 1.49012e-008
v 0.6 0.1 -0.1
v -1.41561e-007 -0.0999998 0.1
v -1.41561e-007 0.2 0.1
v 0.3 -0.0999998 0.1
v 0.3 0.2 0.1
v 0.3 1.93715e-007 1.49012e-008
v 0.3 0.1 1.49012e-008
v 0.6 1.93715e-007 1.49012e-008
v 0.6 0.1 1.49012e-008
v 0.3 1.93715e-007 -0.1
v 0.3 0.1 -0.1
v 0.6 1.93715e-007 -0.1
v 0.6 0.1 -0.1
v -1.41561e-007 -0.0999998 -0.2
v -1.41561e-007 0.2 -0.2
v 0.3 -0.0999998 -0.2
v 0.3 0.2 -0.2
v -1.41561e-007 -0.0999998 0.1
v 0.3 -0.0999998 0.1
v -1.41561e-007 -0.0999998 -0.2
v 0.3 -0.0999998 -0.2
v 0.3 1.93715e-007 1.49012e-008
v 0.6 1.93715e-007 1.49012e-008
v 0.3 1.93715e-007 -0.1
v 0.6 1.93715e-007 -0.1
v 0.3 0.1 1.49012e-008
v 0.6 0.1 1.49012e-008
v 0.3 0.1 -0.1
v 0.6 0.1 -0.1
v -1.41561e-007 0.2 0.1
v 0.3 0.2 0.1
v -1.41561e-007 0.2 -0.2
v 0.3 0.2 -0.2

# faces
f 3/2/1 2/2/1 1/2/1
f 4/2/1 2/2/1 3/2/1
f 5/2/2 6/2/2 7/2/2
f 7/2/2 6/2/2 8/2/2
f 5/2/2 7/2/2 9/2/2
f 8/2/2 6/2/2 10/2/2
f 5/2/2 9/2/2 11/2/2
f 9/2/2 10/2/2 11/2/2
f 10/2/2 6/2/2 12/2/2
f 11/2/2 10/2/2 12/2/2
f 13/1/2 14/1/2 15/1/2
f 15/1/2 14/1/2 16/1/2
f 19/2/3 18/2/3 17/2/3
f 20/2/3 18/2/3 19/2/3
f 23/1/3 22/1/3 21/1/3
f 24/1/3 22/1/3 23/1/3
f 25/1/4 26/1/4 27/1/4
f 27/1/4 26/1/4 28/1/4
f 29/2/4 30/2/4 31/2/4
f 31/2/4 30/2/4 32/2/4
f 35/2/5 34/2/5 33/2/5
f 36/2/5 34/2/5 35/2/5
f 39/1/5 38/1/5 37/1/5
f 40/1/5 38/1/5 39/1/5
f 41/1/6 42/1/6 43/1/6
f 43/1/6 42/1/6 44/1/6
f 45/2/6 46/2/6 47/2/6
f 47/2/6 46/2/6 48/2/6
