# MagicaVoxel @ Ephtracy

# group
o 

# material
mtllib Player_LowArm_L.mtl
usemtl palette

# normals
vn -1 0 0
vn 1 0 0
vn 0 0 1
vn 0 0 -1
vn 0 -1 0
vn 0 1 0

# texcoords
vt 0.0371094 0.5
vt 0.787109 0.5

# verts
v -0.8 -0.2 0.1
v -0.8 -0.2 -0.2
v -0.8 0.1 0.1
v -0.8 0.1 -0.2
v -0.6 -0.0999999 -0.1
v -0.6 -0.0999999 -0.2
v -0.6 -0.0999999 -0.3
v -0.6 5.21541e-008 -0.1
v -0.6 5.21541e-008 -0.2
v -0.6 5.21541e-008 -0.3
v -0.7 -0.0999999 0.1
v -0.7 -0.0999999 -0.2
v -0.7 5.21541e-008 0.1
v -0.7 5.21541e-008 -0.2
v -0.6 -0.2 0.1
v -0.6 -0.2 -0.2
v -0.6 -0.0999999 0.1
v -0.6 -0.0999999 -0.1
v -0.6 -0.0999999 -0.2
v -0.5 -0.0999999 -0.1
v -0.5 -0.0999999 -0.3
v -0.5 5.21541e-008 0.1
v -0.5 5.21541e-008 1.49012e-008
v -0.5 5.21541e-008 -0.1
v -0.5 5.21541e-008 -0.2
v -0.5 5.21541e-008 -0.3
v -0.5 0.1 0.1
v -0.5 0.1 1.49012e-008
v -0.5 0.1 -0.1
v -0.5 0.1 -0.2
v -2.23517e-008 5.21541e-008 1.49012e-008
v -2.23517e-008 5.21541e-008 -0.1
v -2.23517e-008 0.1 1.49012e-008
v -2.23517e-008 0.1 -0.1
v -0.8 -0.2 0.1
v -0.8 0.1 0.1
v -0.7 -0.0999999 0.1
v -0.7 5.21541e-008 0.1
v -0.6 -0.2 0.1
v -0.6 -0.0999999 0.1
v -0.5 5.21541e-008 0.1
v -0.5 0.1 0.1
v -0.5 5.21541e-008 1.49012e-008
v -0.5 0.1 1.49012e-008
v -0.4 5.21541e-008 1.49012e-008
v -0.4 0.1 1.49012e-008
v -2.23517e-008 5.21541e-008 1.49012e-008
v -2.23517e-008 0.1 1.49012e-008
v -0.6 -0.0999999 -0.1
v -0.6 5.21541e-008 -0.1
v -0.5 -0.0999999 -0.1
v -0.5 5.21541e-008 -0.1
v -0.5 5.21541e-008 -0.1
v -0.5 0.1 -0.1
v -0.4 5.21541e-008 -0.1
v -0.4 0.1 -0.1
v -2.23517e-008 5.21541e-008 -0.1
v -2.23517e-008 0.1 -0.1
v -0.8 -0.2 -0.2
v -0.8 0.1 -0.2
v -0.7 -0.0999999 -0.2
v -0.7 5.21541e-008 -0.2
v -0.6 -0.2 -0.2
v -0.6 -0.0999999 -0.2
v -0.6 5.21541e-008 -0.2
v -0.5 5.21541e-008 -0.2
v -0.5 0.1 -0.2
v -0.6 -0.0999999 -0.3
v -0.6 5.21541e-008 -0.3
v -0.5 -0.0999999 -0.3
v -0.5 5.21541e-008 -0.3
v -0.8 -0.2 0.1
v -0.6 -0.2 0.1
v -0.8 -0.2 -0.2
v -0.6 -0.2 -0.2
v -0.6 -0.0999999 -0.1
v -0.5 -0.0999999 -0.1
v -0.6 -0.0999999 -0.2
v -0.6 -0.0999999 -0.3
v -0.5 -0.0999999 -0.3
v -0.7 5.21541e-008 0.1
v -0.5 5.21541e-008 0.1
v -0.5 5.21541e-008 1.49012e-008
v -0.4 5.21541e-008 1.49012e-008
v -2.23517e-008 5.21541e-008 1.49012e-008
v -0.6 5.21541e-008 -0.1
v -0.5 5.21541e-008 -0.1
v -0.4 5.21541e-008 -0.1
v -2.23517e-008 5.21541e-008 -0.1
v -0.7 5.21541e-008 -0.2
v -0.6 5.21541e-008 -0.2
v -0.7 -0.0999999 0.1
v -0.6 -0.0999999 0.1
v -0.6 -0.0999999 -0.1
v -0.7 -0.0999999 -0.2
v -0.6 -0.0999999 -0.2
v -0.6 5.21541e-008 -0.2
v -0.5 5.21541e-008 -0.2
v -0.6 5.21541e-008 -0.3
v -0.5 5.21541e-008 -0.3
v -0.8 0.1 0.1
v -0.5 0.1 0.1
v -0.5 0.1 1.49012e-008
v -0.4 0.1 1.49012e-008
v -2.23517e-008 0.1 1.49012e-008
v -0.5 0.1 -0.1
v -0.4 0.1 -0.1
v -2.23517e-008 0.1 -0.1
v -0.8 0.1 -0.2
v -0.5 0.1 -0.2

# faces
f 3/1/1 2/1/1 1/1/1
f 4/1/1 2/1/1 3/1/1
f 8/1/1 6/1/1 5/1/1
f 8/1/1 7/1/1 6/1/1
f 9/1/1 7/1/1 8/1/1
f 10/1/1 7/1/1 9/1/1
f 11/1/2 12/1/2 13/1/2
f 13/1/2 12/1/2 14/1/2
f 15/1/2 16/1/2 17/1/2
f 17/1/2 16/1/2 18/1/2
f 18/1/2 16/1/2 19/1/2
f 20/1/2 21/1/2 24/1/2
f 24/1/2 21/1/2 25/1/2
f 25/1/2 21/1/2 26/1/2
f 22/1/2 23/1/2 27/1/2
f 27/1/2 23/1/2 28/1/2
f 24/1/2 25/1/2 29/1/2
f 29/1/2 25/1/2 30/1/2
f 31/2/2 32/2/2 33/2/2
f 33/2/2 32/2/2 34/2/2
f 37/1/3 36/1/3 35/1/3
f 38/1/3 36/1/3 37/1/3
f 39/1/3 37/1/3 35/1/3
f 40/1/3 37/1/3 39/1/3
f 41/1/3 36/1/3 38/1/3
f 42/1/3 36/1/3 41/1/3
f 45/1/3 44/1/3 43/1/3
f 46/1/3 44/1/3 45/1/3
f 47/2/3 46/2/3 45/2/3
f 48/2/3 46/2/3 47/2/3
f 51/1/3 50/1/3 49/1/3
f 52/1/3 50/1/3 51/1/3
f 53/1/4 54/1/4 55/1/4
f 55/1/4 54/1/4 56/1/4
f 55/2/4 56/2/4 57/2/4
f 57/2/4 56/2/4 58/2/4
f 59/1/4 60/1/4 61/1/4
f 61/1/4 60/1/4 62/1/4
f 59/1/4 61/1/4 63/1/4
f 63/1/4 61/1/4 64/1/4
f 62/1/4 60/1/4 65/1/4
f 65/1/4 60/1/4 66/1/4
f 66/1/4 60/1/4 67/1/4
f 68/1/4 69/1/4 70/1/4
f 70/1/4 69/1/4 71/1/4
f 74/1/5 73/1/5 72/1/5
f 75/1/5 73/1/5 74/1/5
f 78/1/5 77/1/5 76/1/5
f 79/1/5 77/1/5 78/1/5
f 80/1/5 77/1/5 79/1/5
f 83/1/5 82/1/5 81/1/5
f 86/1/5 83/1/5 81/1/5
f 86/1/5 84/1/5 83/1/5
f 87/1/5 84/1/5 86/1/5
f 88/2/5 85/2/5 84/2/5
f 88/1/5 84/1/5 87/1/5
f 89/2/5 85/2/5 88/2/5
f 90/1/5 86/1/5 81/1/5
f 91/1/5 86/1/5 90/1/5
f 92/1/6 93/1/6 94/1/6
f 92/1/6 94/1/6 95/1/6
f 95/1/6 94/1/6 96/1/6
f 97/1/6 98/1/6 99/1/6
f 99/1/6 98/1/6 100/1/6
f 101/1/6 102/1/6 103/1/6
f 101/1/6 103/1/6 106/1/6
f 103/1/6 104/1/6 106/1/6
f 104/2/6 105/2/6 107/2/6
f 106/1/6 104/1/6 107/1/6
f 107/2/6 105/2/6 108/2/6
f 101/1/6 106/1/6 109/1/6
f 109/1/6 106/1/6 110/1/6
