# MagicaVoxel @ Ephtracy

# group
o 

# material
mtllib Player_LegUp.mtl
usemtl palette

# normals
vn -1 0 0
vn 1 0 0
vn 0 0 1
vn 0 0 -1
vn 0 -1 0
vn 0 1 0

# texcoords
vt 0.0371094 0.5
vt 0.814453 0.5
vt 0.990234 0.5

# verts
v -0.0999999 -0.4 0.2
v -0.0999999 -0.4 -0.1
v -0.0999999 0 0.2
v -0.0999999 0 -0.1
v 7.45058e-008 -0.7 0.1
v 7.45058e-008 -0.7 7.45058e-009
v 7.45058e-008 -0.4 0.1
v 7.45058e-008 -0.4 7.45058e-009
v 0.1 -0.7 0.1
v 0.1 -0.7 7.45058e-009
v 0.1 -0.4 0.1
v 0.1 -0.4 7.45058e-009
v 0.2 -0.4 0.2
v 0.2 -0.4 0.1
v 0.2 -0.4 7.45058e-009
v 0.2 -0.4 -0.1
v 0.2 0 0.2
v 0.2 0 0.1
v 0.2 0 7.45058e-009
v 0.2 0 -0.1
v -0.0999999 -0.4 0.2
v -0.0999999 0 0.2
v 0.2 -0.4 0.2
v 0.2 0 0.2
v 7.45058e-008 -0.7 0.1
v 7.45058e-008 -0.4 0.1
v 0.1 -0.7 0.1
v 0.1 -0.4 0.1
v 7.45058e-008 -0.7 7.45058e-009
v 7.45058e-008 -0.4 7.45058e-009
v 0.1 -0.7 7.45058e-009
v 0.1 -0.4 7.45058e-009
v -0.0999999 -0.4 -0.1
v -0.0999999 0 -0.1
v 0.2 -0.4 -0.1
v 0.2 0 -0.1
v 7.45058e-008 -0.7 0.1
v 0.1 -0.7 0.1
v 7.45058e-008 -0.7 7.45058e-009
v 0.1 -0.7 7.45058e-009
v -0.0999999 -0.4 0.2
v 0.2 -0.4 0.2
v 7.45058e-008 -0.4 0.1
v 0.1 -0.4 0.1
v 0.2 -0.4 0.1
v 7.45058e-008 -0.4 7.45058e-009
v 0.1 -0.4 7.45058e-009
v 0.2 -0.4 7.45058e-009
v -0.0999999 -0.4 -0.1
v 0.2 -0.4 -0.1
v -0.0999999 0 0.2
v 0.2 0 0.2
v 0.1 0 0.1
v 0.2 0 0.1
v 0.1 0 7.45058e-009
v 0.2 0 7.45058e-009
v -0.0999999 0 -0.1
v 0.2 0 -0.1

# faces
f 3/3/1 2/3/1 1/3/1
f 4/3/1 2/3/1 3/3/1
f 7/1/1 6/1/1 5/1/1
f 8/1/1 6/1/1 7/1/1
f 9/1/2 10/1/2 11/1/2
f 11/1/2 10/1/2 12/1/2
f 13/3/2 14/3/2 17/3/2
f 14/2/2 15/2/2 18/2/2
f 17/3/2 14/3/2 18/3/2
f 15/3/2 16/3/2 19/3/2
f 18/2/2 15/2/2 19/2/2
f 19/3/2 16/3/2 20/3/2
f 23/3/3 22/3/3 21/3/3
f 24/3/3 22/3/3 23/3/3
f 27/1/3 26/1/3 25/1/3
f 28/1/3 26/1/3 27/1/3
f 29/1/4 30/1/4 31/1/4
f 31/1/4 30/1/4 32/1/4
f 33/3/4 34/3/4 35/3/4
f 35/3/4 34/3/4 36/3/4
f 39/1/5 38/1/5 37/1/5
f 40/1/5 38/1/5 39/1/5
f 43/3/5 42/3/5 41/3/5
f 44/3/5 42/3/5 43/3/5
f 45/3/5 42/3/5 44/3/5
f 46/3/5 43/3/5 41/3/5
f 47/2/5 45/2/5 44/2/5
f 48/2/5 45/2/5 47/2/5
f 49/3/5 46/3/5 41/3/5
f 49/3/5 47/3/5 46/3/5
f 49/3/5 48/3/5 47/3/5
f 50/3/5 48/3/5 49/3/5
f 51/3/6 52/3/6 53/3/6
f 53/3/6 52/3/6 54/3/6
f 51/3/6 53/3/6 55/3/6
f 53/2/6 54/2/6 55/2/6
f 55/2/6 54/2/6 56/2/6
f 51/3/6 55/3/6 57/3/6
f 55/3/6 56/3/6 57/3/6
f 57/3/6 56/3/6 58/3/6
