# MagicaVoxel @ Ephtracy

# group
o 

# material
mtllib Player_feet.mtl
usemtl palette

# normals
vn -1 0 0
vn 1 0 0
vn 0 0 1
vn 0 0 -1
vn 0 -1 0
vn 0 1 0

# texcoords
vt 0.00976563 0.5
vt 0.0410156 0.5
vt 0.205078 0.5
vt 0.341797 0.5
vt 0.505859 0.5

# verts
v -0.2 0.3 0.1
v -0.2 0.3 -0.2
v -0.2 0.4 0.1
v -0.2 0.4 -0.2
v -0.0999999 0 0.1
v -0.0999999 0 -0.5
v -0.0999999 0.1 0.1
v -0.0999999 0.1 -0.3
v -0.0999999 0.1 -0.5
v -0.0999999 0.2 0.1
v -0.0999999 0.2 -0.2
v -0.0999999 0.2 -0.3
v -0.0999999 0.2 -0.5
v -0.0999999 0.3 0.2
v -0.0999999 0.3 0.1
v -0.0999999 0.3 -0.2
v -0.0999999 0.3 -0.3
v -0.0999999 0.4 0.2
v -0.0999999 0.4 0.1
v -0.0999999 0.4 -0.2
v -0.0999999 0.4 -0.3
v 0.2 0.3 0.1
v 0.2 0.3 -0.2
v 0.2 0.4 0.1
v 0.2 0.4 -0.2
v -0.0999999 0.3 0.1
v -0.0999999 0.3 -0.2
v -0.0999999 0.4 0.1
v -0.0999999 0.4 -0.2
v 0.2 0 0.1
v 0.2 0 -0.5
v 0.2 0.1 0.1
v 0.2 0.1 -0.3
v 0.2 0.1 -0.5
v 0.2 0.2 0.1
v 0.2 0.2 -0.2
v 0.2 0.2 -0.3
v 0.2 0.2 -0.5
v 0.2 0.3 0.2
v 0.2 0.3 0.1
v 0.2 0.3 -0.2
v 0.2 0.3 -0.3
v 0.2 0.4 0.2
v 0.2 0.4 0.1
v 0.2 0.4 -0.2
v 0.2 0.4 -0.3
v 0.3 0.3 0.1
v 0.3 0.3 -0.2
v 0.3 0.4 0.1
v 0.3 0.4 -0.2
v -0.0999999 0.3 0.2
v -0.0999999 0.4 0.2
v 0.2 0.3 0.2
v 0.2 0.4 0.2
v -0.2 0.3 0.1
v -0.2 0.4 0.1
v -0.0999999 0 0.1
v -0.0999999 0.1 0.1
v -0.0999999 0.2 0.1
v -0.0999999 0.3 0.1
v -0.0999999 0.4 0.1
v 0.2 0 0.1
v 0.2 0.1 0.1
v 0.2 0.2 0.1
v 0.2 0.3 0.1
v 0.2 0.4 0.1
v 0.3 0.3 0.1
v 0.3 0.4 0.1
v -0.0999999 0.3 -0.2
v -0.0999999 0.4 -0.2
v 0.2 0.3 -0.2
v 0.2 0.4 -0.2
v -0.0999999 0.3 0.1
v -0.0999999 0.4 0.1
v 0.2 0.3 0.1
v 0.2 0.4 0.1
v -0.2 0.3 -0.2
v -0.2 0.4 -0.2
v -0.0999999 0.2 -0.2
v -0.0999999 0.3 -0.2
v -0.0999999 0.4 -0.2
v 0.2 0.2 -0.2
v 0.2 0.3 -0.2
v 0.2 0.4 -0.2
v 0.3 0.3 -0.2
v 0.3 0.4 -0.2
v -0.0999999 0.3 -0.3
v -0.0999999 0.4 -0.3
v 0.2 0.3 -0.3
v 0.2 0.4 -0.3
v -0.0999999 0 -0.5
v -0.0999999 0.1 -0.5
v -0.0999999 0.2 -0.5
v 0.2 0 -0.5
v 0.2 0.1 -0.5
v 0.2 0.2 -0.5
v -0.0999999 0 0.1
v 0.2 0 0.1
v -0.0999999 0 -0.5
v 0.2 0 -0.5
v -0.0999999 0.3 0.2
v 0.2 0.3 0.2
v -0.2 0.3 0.1
v -0.0999999 0.3 0.1
v 0.2 0.3 0.1
v 0.3 0.3 0.1
v -0.2 0.3 -0.2
v -0.0999999 0.3 -0.2
v 0.2 0.3 -0.2
v 0.3 0.3 -0.2
v -0.0999999 0.3 -0.3
v 0.2 0.3 -0.3
v -0.0999999 0.2 -0.2
v 0.2 0.2 -0.2
v -0.0999999 0.2 -0.3
v 0.2 0.2 -0.3
v -0.0999999 0.2 -0.5
v 0.2 0.2 -0.5
v -0.0999999 0.3 0.1
v 0.2 0.3 0.1
v 5.21541e-008 0.3 7.45058e-009
v 0.1 0.3 7.45058e-009
v 5.21541e-008 0.3 -0.1
v 0.1 0.3 -0.1
v -0.0999999 0.3 -0.2
v 0.2 0.3 -0.2
v -0.0999999 0.4 0.2
v 0.2 0.4 0.2
v -0.2 0.4 0.1
v -0.0999999 0.4 0.1
v 0.2 0.4 0.1
v 0.3 0.4 0.1
v -0.2 0.4 -0.2
v -0.0999999 0.4 -0.2
v 0.2 0.4 -0.2
v 0.3 0.4 -0.2
v -0.0999999 0.4 -0.3
v 0.2 0.4 -0.3

# faces
f 3/4/1 2/4/1 1/4/1
f 4/4/1 2/4/1 3/4/1
f 7/1/1 6/1/1 5/1/1
f 8/1/1 6/1/1 7/1/1
f 9/1/1 6/1/1 8/1/1
f 10/2/1 8/2/1 7/2/1
f 11/2/1 8/2/1 10/2/1
f 12/3/1 9/3/1 8/3/1
f 12/2/1 8/2/1 11/2/1
f 13/3/1 9/3/1 12/3/1
f 15/5/1 11/5/1 10/5/1
f 16/5/1 11/5/1 15/5/1
f 18/4/1 15/4/1 14/4/1
f 19/4/1 15/4/1 18/4/1
f 20/4/1 17/4/1 16/4/1
f 21/4/1 17/4/1 20/4/1
f 24/4/1 23/4/1 22/4/1
f 25/4/1 23/4/1 24/4/1
f 26/4/2 27/4/2 28/4/2
f 28/4/2 27/4/2 29/4/2
f 30/1/2 31/1/2 32/1/2
f 32/1/2 31/1/2 33/1/2
f 33/1/2 31/1/2 34/1/2
f 32/2/2 33/2/2 35/2/2
f 35/2/2 33/2/2 36/2/2
f 33/3/2 34/3/2 37/3/2
f 36/2/2 33/2/2 37/2/2
f 37/3/2 34/3/2 38/3/2
f 35/5/2 36/5/2 40/5/2
f 40/5/2 36/5/2 41/5/2
f 39/4/2 40/4/2 43/4/2
f 43/4/2 40/4/2 44/4/2
f 41/4/2 42/4/2 45/4/2
f 45/4/2 42/4/2 46/4/2
f 47/4/2 48/4/2 49/4/2
f 49/4/2 48/4/2 50/4/2
f 53/4/3 52/4/3 51/4/3
f 54/4/3 52/4/3 53/4/3
f 60/4/3 56/4/3 55/4/3
f 61/4/3 56/4/3 60/4/3
f 62/1/3 58/1/3 57/1/3
f 63/2/3 59/2/3 58/2/3
f 63/1/3 58/1/3 62/1/3
f 64/5/3 60/5/3 59/5/3
f 64/2/3 59/2/3 63/2/3
f 65/5/3 60/5/3 64/5/3
f 67/4/3 66/4/3 65/4/3
f 68/4/3 66/4/3 67/4/3
f 71/4/3 70/4/3 69/4/3
f 72/4/3 70/4/3 71/4/3
f 73/4/4 74/4/4 75/4/4
f 75/4/4 74/4/4 76/4/4
f 77/4/4 78/4/4 80/4/4
f 80/4/4 78/4/4 81/4/4
f 79/5/4 80/5/4 82/5/4
f 82/5/4 80/5/4 83/5/4
f 83/4/4 84/4/4 85/4/4
f 85/4/4 84/4/4 86/4/4
f 87/4/4 88/4/4 89/4/4
f 89/4/4 88/4/4 90/4/4
f 91/1/4 92/1/4 94/1/4
f 92/3/4 93/3/4 95/3/4
f 94/1/4 92/1/4 95/1/4
f 95/3/4 93/3/4 96/3/4
f 99/1/5 98/1/5 97/1/5
f 100/1/5 98/1/5 99/1/5
f 104/4/5 102/4/5 101/4/5
f 105/4/5 102/4/5 104/4/5
f 107/4/5 104/4/5 103/4/5
f 108/4/5 104/4/5 107/4/5
f 109/4/5 106/4/5 105/4/5
f 110/4/5 106/4/5 109/4/5
f 111/4/5 109/4/5 108/4/5
f 112/4/5 109/4/5 111/4/5
f 113/2/6 114/2/6 115/2/6
f 115/2/6 114/2/6 116/2/6
f 115/3/6 116/3/6 117/3/6
f 117/3/6 116/3/6 118/3/6
f 119/5/6 120/5/6 121/5/6
f 121/5/6 120/5/6 122/5/6
f 119/5/6 121/5/6 123/5/6
f 121/2/6 122/2/6 123/2/6
f 122/5/6 120/5/6 124/5/6
f 123/2/6 122/2/6 124/2/6
f 119/5/6 123/5/6 125/5/6
f 123/5/6 124/5/6 125/5/6
f 124/5/6 120/5/6 126/5/6
f 125/5/6 124/5/6 126/5/6
f 127/4/6 128/4/6 130/4/6
f 130/4/6 128/4/6 131/4/6
f 129/4/6 130/4/6 133/4/6
f 133/4/6 130/4/6 134/4/6
f 131/4/6 132/4/6 135/4/6
f 135/4/6 132/4/6 136/4/6
f 134/4/6 135/4/6 137/4/6
f 137/4/6 135/4/6 138/4/6
