# MagicaVoxel @ Ephtracy

# group
o 

# material
mtllib Player_LowArm_R.mtl
usemtl palette

# normals
vn -1 0 0
vn 1 0 0
vn 0 0 1
vn 0 0 -1
vn 0 -1 0
vn 0 1 0

# texcoords
vt 0.0371094 0.5
vt 0.787109 0.5

# verts
v -1.41561e-007 1.93715e-007 1.49012e-008
v -1.41561e-007 1.93715e-007 -0.1
v -1.41561e-007 0.1 1.49012e-008
v -1.41561e-007 0.1 -0.1
v 0.5 1.93715e-007 0.1
v 0.5 1.93715e-007 1.49012e-008
v 0.5 1.93715e-007 -0.1
v 0.5 1.93715e-007 -0.2
v 0.5 0.1 0.1
v 0.5 0.1 1.49012e-008
v 0.5 0.1 -0.1
v 0.5 0.1 -0.2
v 0.6 -0.0999998 -0.1
v 0.6 -0.0999998 -0.2
v 0.6 1.93715e-007 -0.1
v 0.6 1.93715e-007 -0.2
v 0.8 -0.0999998 0.1
v 0.8 -0.0999998 -0.1
v 0.8 1.93715e-007 0.1
v 0.8 1.93715e-007 -0.1
v 0.7 1.93715e-007 -0.1
v 0.7 1.93715e-007 -0.2
v 0.7 0.1 -0.1
v 0.7 0.1 -0.2
v 0.8 -0.0999998 -0.1
v 0.8 -0.0999998 -0.2
v 0.8 1.93715e-007 -0.1
v 0.8 1.93715e-007 -0.2
v 0.9 -0.0999998 0.1
v 0.9 -0.0999998 -0.1
v 0.9 0.1 0.1
v 0.9 0.1 -0.1
v 0.5 1.93715e-007 0.1
v 0.5 0.1 0.1
v 0.8 -0.0999998 0.1
v 0.8 1.93715e-007 0.1
v 0.9 -0.0999998 0.1
v 0.9 0.1 0.1
v -1.41561e-007 1.93715e-007 1.49012e-008
v -1.41561e-007 0.1 1.49012e-008
v 0.4 1.93715e-007 1.49012e-008
v 0.4 0.1 1.49012e-008
v 0.5 1.93715e-007 1.49012e-008
v 0.5 0.1 1.49012e-008
v 0.6 -0.0999998 -0.1
v 0.6 1.93715e-007 -0.1
v 0.8 -0.0999998 -0.1
v 0.8 1.93715e-007 -0.1
v -1.41561e-007 1.93715e-007 -0.1
v -1.41561e-007 0.1 -0.1
v 0.4 1.93715e-007 -0.1
v 0.4 0.1 -0.1
v 0.5 1.93715e-007 -0.1
v 0.5 0.1 -0.1
v 0.7 1.93715e-007 -0.1
v 0.7 0.1 -0.1
v 0.8 -0.0999998 -0.1
v 0.8 1.93715e-007 -0.1
v 0.9 -0.0999998 -0.1
v 0.9 0.1 -0.1
v 0.5 1.93715e-007 -0.2
v 0.5 0.1 -0.2
v 0.6 -0.0999998 -0.2
v 0.6 1.93715e-007 -0.2
v 0.7 1.93715e-007 -0.2
v 0.7 0.1 -0.2
v 0.8 -0.0999998 -0.2
v 0.8 1.93715e-007 -0.2
v 0.8 -0.0999998 0.1
v 0.9 -0.0999998 0.1
v 0.6 -0.0999998 -0.1
v 0.8 -0.0999998 -0.1
v 0.9 -0.0999998 -0.1
v 0.6 -0.0999998 -0.2
v 0.8 -0.0999998 -0.2
v 0.5 1.93715e-007 0.1
v 0.8 1.93715e-007 0.1
v -1.41561e-007 1.93715e-007 1.49012e-008
v 0.4 1.93715e-007 1.49012e-008
v 0.5 1.93715e-007 1.49012e-008
v -1.41561e-007 1.93715e-007 -0.1
v 0.4 1.93715e-007 -0.1
v 0.5 1.93715e-007 -0.1
v 0.6 1.93715e-007 -0.1
v 0.8 1.93715e-007 -0.1
v 0.5 1.93715e-007 -0.2
v 0.6 1.93715e-007 -0.2
v 0.7 1.93715e-007 -0.1
v 0.8 1.93715e-007 -0.1
v 0.7 1.93715e-007 -0.2
v 0.8 1.93715e-007 -0.2
v 0.5 0.1 0.1
v 0.9 0.1 0.1
v -1.41561e-007 0.1 1.49012e-008
v 0.4 0.1 1.49012e-008
v 0.5 0.1 1.49012e-008
v -1.41561e-007 0.1 -0.1
v 0.4 0.1 -0.1
v 0.5 0.1 -0.1
v 0.7 0.1 -0.1
v 0.9 0.1 -0.1
v 0.5 0.1 -0.2
v 0.7 0.1 -0.2

# faces
f 3/2/1 2/2/1 1/2/1
f 4/2/1 2/2/1 3/2/1
f 9/1/1 6/1/1 5/1/1
f 10/1/1 6/1/1 9/1/1
f 11/1/1 8/1/1 7/1/1
f 12/1/1 8/1/1 11/1/1
f 15/1/1 14/1/1 13/1/1
f 16/1/1 14/1/1 15/1/1
f 19/1/1 18/1/1 17/1/1
f 20/1/1 18/1/1 19/1/1
f 21/1/2 22/1/2 23/1/2
f 23/1/2 22/1/2 24/1/2
f 25/1/2 26/1/2 27/1/2
f 27/1/2 26/1/2 28/1/2
f 29/1/2 30/1/2 31/1/2
f 31/1/2 30/1/2 32/1/2
f 36/1/3 34/1/3 33/1/3
f 37/1/3 36/1/3 35/1/3
f 38/1/3 34/1/3 36/1/3
f 38/1/3 36/1/3 37/1/3
f 41/2/3 40/2/3 39/2/3
f 42/2/3 40/2/3 41/2/3
f 43/1/3 42/1/3 41/1/3
f 44/1/3 42/1/3 43/1/3
f 47/1/3 46/1/3 45/1/3
f 48/1/3 46/1/3 47/1/3
f 49/2/4 50/2/4 51/2/4
f 51/2/4 50/2/4 52/2/4
f 51/1/4 52/1/4 53/1/4
f 53/1/4 52/1/4 54/1/4
f 55/1/4 56/1/4 58/1/4
f 57/1/4 58/1/4 59/1/4
f 58/1/4 56/1/4 60/1/4
f 59/1/4 58/1/4 60/1/4
f 61/1/4 62/1/4 64/1/4
f 64/1/4 62/1/4 65/1/4
f 63/1/4 64/1/4 65/1/4
f 65/1/4 62/1/4 66/1/4
f 63/1/4 65/1/4 67/1/4
f 67/1/4 65/1/4 68/1/4
f 72/1/5 70/1/5 69/1/5
f 73/1/5 70/1/5 72/1/5
f 74/1/5 72/1/5 71/1/5
f 75/1/5 72/1/5 74/1/5
f 80/1/5 77/1/5 76/1/5
f 81/2/5 79/2/5 78/2/5
f 82/1/5 80/1/5 79/1/5
f 82/2/5 79/2/5 81/2/5
f 83/1/5 77/1/5 80/1/5
f 83/1/5 80/1/5 82/1/5
f 84/1/5 77/1/5 83/1/5
f 85/1/5 77/1/5 84/1/5
f 86/1/5 84/1/5 83/1/5
f 87/1/5 84/1/5 86/1/5
f 88/1/6 89/1/6 90/1/6
f 90/1/6 89/1/6 91/1/6
f 92/1/6 93/1/6 96/1/6
f 94/2/6 95/2/6 97/2/6
f 95/1/6 96/1/6 98/1/6
f 97/2/6 95/2/6 98/2/6
f 96/1/6 93/1/6 99/1/6
f 98/1/6 96/1/6 99/1/6
f 99/1/6 93/1/6 100/1/6
f 100/1/6 93/1/6 101/1/6
f 99/1/6 100/1/6 102/1/6
f 102/1/6 100/1/6 103/1/6
